<?xml version="1.0" standalone="no"?>
<!DOCTYPE svg PUBLIC "-//W3C//DTD SVG 20010904//EN"
 "http://www.w3.org/TR/2001/REC-SVG-20010904/DTD/svg10.dtd">
<svg version="1.0" xmlns="http://www.w3.org/2000/svg"
 width="1280.000000pt" height="634.000000pt" viewBox="0 0 1280.000000 634.000000"
 preserveAspectRatio="xMidYMid meet">
<metadata>
Created by potrace 1.15, written by Peter Selinger 2001-2017
</metadata>
<g transform="translate(0.000000,634.000000) scale(0.100000,-0.100000)"
fill="#000000" stroke="none">
<path d="M6305 6183 c-16 -2 -64 -12 -105 -22 -68 -17 -181 -41 -403 -85 -100
-20 -176 -58 -237 -119 -40 -40 -54 -64 -76 -129 -23 -69 -26 -92 -21 -155 6
-77 9 -84 84 -191 105 -148 264 -224 506 -238 56 -3 111 -8 122 -9 11 -2 23
-4 28 -4 11 -1 9 -61 -4 -101 -6 -19 -14 -80 -18 -135 l-6 -100 -29 3 c-15 2
-47 15 -70 29 -22 15 -135 74 -251 133 -235 119 -338 153 -518 171 -166 16
-296 -9 -384 -77 -39 -30 -118 -179 -134 -253 l-10 -48 -77 -7 c-252 -21 -435
-95 -635 -257 -143 -115 -345 -330 -374 -396 -17 -40 -16 -150 3 -212 8 -28
14 -73 12 -99 -3 -45 -4 -47 -38 -53 -19 -3 -72 -20 -117 -38 -134 -54 -185
-126 -184 -259 1 -31 -1 -96 -3 -145 -3 -52 -1 -85 5 -82 5 4 9 1 9 -5 0 -6
11 -28 25 -49 23 -34 92 -85 220 -161 22 -13 42 -28 43 -32 2 -4 9 -8 15 -8 7
0 24 -6 39 -14 14 -8 42 -19 62 -26 20 -6 43 -19 52 -27 8 -9 31 -17 50 -19
19 -2 39 -6 44 -9 17 -10 28 -77 29 -172 1 -50 5 -112 10 -138 l9 -47 -107 9
c-109 8 -207 10 -321 4 -36 -1 -148 -2 -250 -1 -156 1 -196 -2 -255 -19 -234
-65 -334 -116 -452 -229 -69 -66 -85 -102 -58 -132 21 -23 10 -43 -20 -36 -26
7 -35 -13 -35 -77 0 -21 -7 -54 -16 -75 -27 -60 -25 -198 4 -291 22 -70 30
-82 106 -156 63 -63 100 -90 166 -122 152 -74 335 -110 499 -99 215 14 253 20
406 62 253 70 301 86 420 144 196 97 249 148 310 301 29 71 38 84 59 87 14 2
80 -15 148 -38 104 -35 138 -43 220 -46 99 -3 217 17 272 48 13 7 56 30 97 51
41 21 81 44 89 51 8 7 22 15 31 19 14 5 79 125 79 147 0 6 12 45 27 87 19 54
27 99 27 148 1 62 -3 76 -31 121 -25 38 -33 63 -33 96 0 25 -9 70 -20 102 -39
114 -78 171 -214 309 -106 108 -144 140 -198 167 l-67 33 27 51 c24 45 27 61
25 138 -1 51 -8 101 -17 123 -9 21 -16 41 -16 46 0 11 50 37 115 62 88 33 101
36 210 56 53 9 122 -7 154 -37 14 -13 38 -30 53 -38 15 -8 43 -25 63 -38 48
-33 197 -81 325 -105 268 -50 388 -47 685 15 11 2 31 6 45 9 27 5 90 -14 90
-28 0 -4 4 -6 8 -3 10 6 64 -39 57 -46 -3 -3 10 -29 30 -58 19 -28 35 -54 35
-57 0 -25 162 -190 230 -235 71 -46 246 -135 337 -171 39 -16 74 -35 77 -42 2
-7 -15 -54 -40 -103 -75 -151 -108 -286 -100 -411 7 -102 11 -118 54 -224 43
-104 106 -188 170 -227 26 -15 72 -44 102 -64 75 -48 131 -60 205 -47 32 6 97
11 144 11 106 1 153 11 244 55 85 40 187 133 241 218 89 142 126 206 150 266
25 62 66 271 66 338 l0 32 68 -35 c79 -39 162 -63 244 -70 69 -6 221 19 285
47 27 11 81 31 121 45 100 32 141 57 180 109 50 66 72 135 83 259 5 61 9 114
9 118 0 14 187 20 265 8 73 -10 189 -40 225 -59 25 -12 233 5 291 24 112 37
191 85 270 164 98 99 121 148 127 267 4 81 2 95 -21 140 -30 60 -134 161 -242
237 -45 30 -89 65 -100 77 -11 12 -50 39 -86 61 -69 40 -182 123 -282 207 -32
27 -84 62 -115 78 -49 24 -71 29 -152 31 -52 1 -120 4 -150 7 -30 3 -73 1 -95
-5 -22 -6 -86 -11 -142 -12 -97 -2 -103 -3 -140 -33 -96 -77 -135 -188 -114
-327 11 -73 28 -120 92 -264 11 -23 19 -47 19 -53 0 -11 -35 -5 -86 15 -65 26
-172 38 -252 26 -43 -5 -110 -13 -151 -16 -91 -7 -133 -25 -241 -107 l-85 -65
-26 42 c-28 44 -71 81 -125 108 -17 9 -46 35 -64 60 -19 24 -53 58 -77 76 -57
44 -218 99 -310 108 -40 3 -73 8 -73 11 0 3 18 45 41 94 38 83 41 95 37 161
-4 88 -44 176 -98 215 -19 14 -62 52 -95 83 -72 67 -101 83 -180 99 -68 14
-95 26 -95 41 0 6 20 33 45 61 24 27 70 101 102 163 65 129 48 118 203 129 66
4 188 29 340 68 86 23 211 84 237 116 44 56 57 97 58 182 0 114 -29 176 -134
280 -102 102 -160 125 -355 145 -212 22 -336 18 -491 -16 -78 -18 -204 -68
-273 -111 -91 -56 -109 -52 -123 27 -15 82 -41 160 -68 200 -15 22 -40 59 -56
83 -37 56 -76 78 -187 106 -89 22 -305 39 -383 29z"/>
<path d="M1180 3660 c-41 -4 -124 -19 -185 -33 -60 -14 -146 -30 -190 -36
-134 -17 -402 -125 -510 -206 -16 -12 -52 -34 -80 -48 -92 -46 -125 -96 -125
-187 0 -77 69 -239 138 -326 47 -59 279 -147 462 -175 173 -27 423 12 585 90
179 87 366 277 428 436 27 67 28 178 4 223 -10 18 -33 42 -51 53 -22 13 -39
35 -54 72 -28 67 -63 100 -127 122 -59 20 -191 27 -295 15z"/>
<path d="M1585 2508 c-262 -23 -390 -59 -618 -175 -176 -90 -242 -148 -290
-252 -29 -65 -30 -67 -23 -191 9 -176 25 -231 94 -320 45 -58 77 -86 127 -113
118 -63 230 -92 321 -83 32 3 151 10 264 15 222 10 341 22 435 47 33 8 77 19
99 25 96 24 237 112 275 171 11 18 39 56 62 83 74 92 84 118 84 231 0 57 -5
107 -11 115 -6 8 -11 28 -12 44 -6 100 -72 219 -152 275 -54 39 -79 50 -170
80 -136 44 -321 63 -485 48z"/>
<path d="M10378 2410 c-137 -30 -228 -82 -327 -185 -66 -70 -148 -187 -175
-250 -3 -6 -11 -3 -19 8 -8 9 -17 17 -21 17 -12 0 -6 -48 6 -52 10 -4 8 -21
-9 -69 -74 -220 -81 -353 -23 -449 53 -87 96 -136 147 -166 l48 -29 200 0 200
0 55 -35 c54 -35 55 -35 170 -35 140 1 188 17 322 109 145 99 178 116 217 111
19 -3 40 0 48 7 12 10 17 9 24 -5 6 -9 15 -17 20 -17 6 0 29 -16 51 -35 52
-44 302 -170 376 -189 62 -17 274 -52 362 -60 30 -3 82 -8 116 -12 162 -17
398 77 471 187 25 39 28 52 31 143 4 178 3 187 -29 253 -33 68 -103 135 -188
178 -25 13 -85 47 -132 77 -50 31 -114 62 -150 72 -35 10 -93 33 -129 50 -91
46 -144 62 -314 92 -137 24 -155 26 -217 14 -79 -15 -85 -26 -57 -101 9 -25
13 -50 10 -56 -22 -33 -104 -15 -117 26 -10 33 -45 71 -65 71 -11 0 -35 -13
-53 -30 -36 -31 -57 -38 -57 -19 0 16 -88 150 -124 187 -46 50 -154 126 -211
150 -154 64 -294 77 -457 42z"/>
<path d="M7867 1696 c-21 -8 -55 -31 -76 -53 -21 -21 -58 -55 -84 -76 -25 -20
-47 -47 -49 -60 -2 -14 -9 -20 -18 -18 -8 2 -50 9 -92 14 -74 9 -80 9 -134
-18 -62 -30 -170 -134 -230 -221 -79 -114 -106 -316 -64 -476 43 -166 120
-321 194 -393 57 -56 188 -151 241 -176 146 -69 252 -73 462 -18 157 41 213
63 298 120 182 122 287 312 306 552 15 200 -17 326 -127 495 -75 117 -111 160
-186 223 -104 86 -340 143 -441 105z"/>
</g>
</svg>
