<svg xmlns="http://www.w3.org/2000/svg" width="1920" height="1260" viewBox="0 0 1920 1260">
  <defs>
    <style>
      .cls-1 {
        fill-rule: evenodd;
      }
    </style>
  </defs>
  <path id="Color_Fill_1" data-name="Color Fill 1" class="cls-1" d="M0,0H1920V800c-9.37-3.456-16.99-1.348-26,0-13.32,1.993-22.11-6.646-38-4-15.57,2.592-35.61,8.509-56,5-11.14-1.917-19.06-9.054-28-11-14.59-3.176-24.25,9.049-33,13,38.79-54.576,28.03-126.458-44-140-36.23-6.81-54.7,14.29-79,18l-3-3c-0.73-17.065,8.04-49.468-6-59-8.2-5.568-20.74-2.057-33-4-33.07-5.243-70.06-3.249-108-9l-122-2-92,1h-55c-53.53,8.276-110.97,1.9-158,14-5.04,10.557-3.23,26.556-3,41,0.92,57.456,6.09,102.3,17,147-54.85.173-98.07-6.715-144-14-23.638-3.749-40.4,6.045-58,9l-28-4c-16.436-2.755-28.054,4.716-39,7-19.6,4.089-34.589-25.334-66-18-18.637,4.351-35.669,15.24-58,19-25.918,4.364-45.729-4.776-66-8l-88,4c-55.562-8.625-86.19-10.389-136,8-10.848,4-56.41-17.676-80-14-20.012,3.118-38.217-5.03-60-1l-30,8-48-4-58,4-35-4c-21.853-3.425-42.474,3.094-59,6V0ZM1596,803s3.47-34.009,10-38,15.16-8.44,20-25,14.54-44.541,44-47,44.84,3.78,52,20,34.82,57.122-13,83c-15.17,8.21-41.27,5.422-52,4s-23.17.605-29,2-17.11-15.541-24-9S1596,803,1596,803Z"/>
</svg>
